<svg xmlns="http://www.w3.org/2000/svg" width="344.539" height="78.181" viewBox="0 0 344.539 78.181"><g id="logo" transform="translate(-0.6 -0.6)"><g id="Raggruppa_6" data-name="Raggruppa 6" transform="translate(70.009 0.6)"><g id="Raggruppa_1" data-name="Raggruppa 1" transform="translate(268.029 36.549)"><path id="Tracciato_1" data-name="Tracciato 1" d="M485.3,56.651a4.7,4.7,0,0,1,.139-.975,4.258,4.258,0,0,1,.348-.835,2.725,2.725,0,0,1,.557-.7,4.881,4.881,0,0,1,.7-.557,4.261,4.261,0,0,1,.835-.348,4.109,4.109,0,0,1,.975-.139,4.7,4.7,0,0,1,.975.139,4.26,4.26,0,0,1,.835.348,2.726,2.726,0,0,1,.7.557,4.88,4.88,0,0,1,.557.7,4.258,4.258,0,0,1,.348.835,4.111,4.111,0,0,1,.139.975,4.7,4.7,0,0,1-.139.975,3.013,3.013,0,0,1-.348.835,2.726,2.726,0,0,1-.557.7,4.877,4.877,0,0,1-.7.557,4.259,4.259,0,0,1-.835.348,4.108,4.108,0,0,1-.975.139,4.7,4.7,0,0,1-.975-.139,3.014,3.014,0,0,1-.835-.348,2.726,2.726,0,0,1-.7-.557,4.876,4.876,0,0,1-.557-.7,4.258,4.258,0,0,1-.348-.835A2.37,2.37,0,0,1,485.3,56.651Zm.487,0a3.49,3.49,0,0,0,.139.835,3.4,3.4,0,0,0,.278.766,2.168,2.168,0,0,0,.487.627,3.826,3.826,0,0,0,.627.487,8.164,8.164,0,0,0,.766.348,2.576,2.576,0,0,0,1.671,0,3.733,3.733,0,0,0,.766-.348,2.169,2.169,0,0,0,.627-.487,3.821,3.821,0,0,0,.487-.627,2.492,2.492,0,0,0,.279-.766,3.493,3.493,0,0,0,.139-.835,3.944,3.944,0,0,0-.209-1.253,2.921,2.921,0,0,0-.627-.975,4.944,4.944,0,0,0-.975-.7,2.289,2.289,0,0,0-1.184-.278,3.5,3.5,0,0,0-.835.139,3.734,3.734,0,0,0-.766.348,2.168,2.168,0,0,0-.627.487,3.828,3.828,0,0,0-.487.627,2.5,2.5,0,0,0-.278.766A1.023,1.023,0,0,0,485.787,56.651Zm2.367.418v1.74h-.766V54.423h1.392a2.093,2.093,0,0,1,1.253.278,1.034,1.034,0,0,1,.418.905,1.047,1.047,0,0,1-.279.766,1.172,1.172,0,0,1-.766.418c.07,0,.07.07.139.139s.07.139.139.139l1.114,1.6h-.7c-.139,0-.209-.07-.209-.139l-.975-1.462c0-.07-.07-.07-.139-.07h-.209l-.418.07Zm0-.557h.557a1.12,1.12,0,0,0,.766-.209.79.79,0,0,0,.209-.557.628.628,0,0,0-.07-.348c0-.07-.07-.139-.139-.209s-.139-.07-.278-.139a.883.883,0,0,0-.418-.07h-.627v1.532Z" transform="translate(-485.3 -53.1)" fill="#4b4b4b"></path></g><g id="Raggruppa_5" data-name="Raggruppa 5"><g id="Raggruppa_4" data-name="Raggruppa 4"><g id="Raggruppa_3" data-name="Raggruppa 3"><g id="Raggruppa_2" data-name="Raggruppa 2"><path id="Tracciato_2" data-name="Tracciato 2" d="M104.547,26.6c-2.854-2.715-4.247-6.335-4.247-10.93s1.392-8.215,4.247-10.93a15.324,15.324,0,0,1,11-4.038,21.958,21.958,0,0,1,11.487,2.854l1.044,6.753h-.418a10.026,10.026,0,0,0-3.9-6.2c-1.949-1.323-4.664-2.019-8.145-2.019a10.954,10.954,0,0,0-8.563,3.62c-2.228,2.437-3.342,5.709-3.342,9.886s1.114,7.449,3.342,9.886,5.291,3.62,9.259,3.62a14.1,14.1,0,0,0,10.164-4.177l.07-6.335a1.7,1.7,0,0,0-.557-1.392,2.515,2.515,0,0,0-1.671-.487h-.7v-.487h8.7v.487h-.7c-1.462,0-2.158.627-2.158,1.88V24.3a17.636,17.636,0,0,1-5.5,4.316,16.84,16.84,0,0,1-8.076,1.81C111.16,30.636,107.331,29.243,104.547,26.6Z" transform="translate(-100.3 -0.63)" fill="#4b4b4b"></path><path id="Tracciato_3" data-name="Tracciato 3" d="M151,29.826a3.6,3.6,0,0,0,2.228-.766,2.284,2.284,0,0,0,.975-1.81V4.763a2.284,2.284,0,0,0-.975-1.81,3.651,3.651,0,0,0-2.3-.766H150.3V1.7h10.791v.487h-.557a3.541,3.541,0,0,0-2.228.7,2.454,2.454,0,0,0-1.044,1.74V27.25a2.284,2.284,0,0,0,.975,1.81,3.6,3.6,0,0,0,2.228.766h.627l.07.487H150.3v-.487Z" transform="translate(-115.491 -0.934)" fill="#4b4b4b"></path><path id="Tracciato_4" data-name="Tracciato 4" d="M173.966,29.491a2.858,2.858,0,0,0,1.949-.766,2.344,2.344,0,0,0,.835-1.81V4.29a2.112,2.112,0,0,0-.835-1.74,2.8,2.8,0,0,0-1.949-.7h-.7V1.366h13.924a16.471,16.471,0,0,0,3.411-.278A10.9,10.9,0,0,0,192.484.6V6.03l-.557-.07v-.7a2.309,2.309,0,0,0-.7-1.74,2.209,2.209,0,0,0-1.74-.7H179.6V14.941h8.145a1.994,1.994,0,0,0,1.462-.557,1.961,1.961,0,0,0,.487-1.462V12.3h.557v6.683H189.7v-.627a1.873,1.873,0,0,0-.975-1.81l-.835-.209H179.6V28.447h7.519a8.278,8.278,0,0,0,3.69-.766,6.81,6.81,0,0,0,2.3-1.81,14.069,14.069,0,0,0,1.6-2.785h.487l-2.645,6.823H173.2v-.487l.766.07Z" transform="translate(-122.449 -0.6)" fill="#4b4b4b"></path><path id="Tracciato_5" data-name="Tracciato 5" d="M229.006,5.264a2.236,2.236,0,0,0-1.392-2.228,2.457,2.457,0,0,0-.975-.209H216.544V14.941h8.285a1.994,1.994,0,0,0,1.462-.557,1.961,1.961,0,0,0,.487-1.462V12.3h.557v6.683h-.557v-.627a1.932,1.932,0,0,0-.766-1.671,2.318,2.318,0,0,0-1.044-.348h-8.424V26.846a2.644,2.644,0,0,0,1.114,2.089,2.775,2.775,0,0,0,1.671.487h.7v.487H210.07v-.487h.7a2.858,2.858,0,0,0,1.949-.766,2.344,2.344,0,0,0,.835-1.81V4.29a2.337,2.337,0,0,0-1.392-2.158,3.236,3.236,0,0,0-1.462-.348H210V1.366h14.063a25.149,25.149,0,0,0,3.063-.209A9.058,9.058,0,0,0,229.493.6V6.03l-.557-.07v-.7Z" transform="translate(-133.629 -0.6)" fill="#4b4b4b"></path><path id="Tracciato_6" data-name="Tracciato 6" d="M264.806,5.264a2.236,2.236,0,0,0-1.392-2.228,2.457,2.457,0,0,0-.975-.209H252.344V14.941h8.285a1.994,1.994,0,0,0,1.462-.557,1.961,1.961,0,0,0,.487-1.462V12.3h.557v6.683h-.557v-.627a1.932,1.932,0,0,0-.766-1.671,2.318,2.318,0,0,0-1.044-.348h-8.424V26.846a2.644,2.644,0,0,0,1.114,2.089,2.775,2.775,0,0,0,1.671.487h.7v.487H245.87v-.487h.7a2.858,2.858,0,0,0,1.949-.766,2.344,2.344,0,0,0,.835-1.81V4.29a2.337,2.337,0,0,0-1.392-2.158,3.236,3.236,0,0,0-1.462-.348h-.7V1.366h14.063a25.15,25.15,0,0,0,3.063-.209A9.058,9.058,0,0,0,265.293.6V6.03l-.557-.07v-.7Z" transform="translate(-144.506 -0.6)" fill="#4b4b4b"></path><path id="Tracciato_7" data-name="Tracciato 7" d="M282.4,29.491a2.858,2.858,0,0,0,1.949-.766,2.344,2.344,0,0,0,.835-1.81V4.29a2.112,2.112,0,0,0-.835-1.74,2.8,2.8,0,0,0-1.949-.7h-.7V1.366h13.924a16.471,16.471,0,0,0,3.411-.278A10.9,10.9,0,0,0,300.915.6V6.03l-.557-.07v-.7a2.309,2.309,0,0,0-.7-1.74,2.209,2.209,0,0,0-1.74-.7h-9.746V14.941h8.145a1.994,1.994,0,0,0,1.462-.557,1.961,1.961,0,0,0,.487-1.462V12.3h.557v6.683h-.557v-.627a1.873,1.873,0,0,0-.975-1.81l-.835-.209h-8.285V28.447h7.519a8.278,8.278,0,0,0,3.69-.766,6.811,6.811,0,0,0,2.3-1.81,14.068,14.068,0,0,0,1.6-2.785h.487l-2.646,6.823H281.77v-.487l.627.07Z" transform="translate(-155.413 -0.6)" fill="#4b4b4b"></path><path id="Tracciato_8" data-name="Tracciato 8" d="M125.985,67.107a7.377,7.377,0,0,0,2.019.278,8.472,8.472,0,0,0,1.462-.07,11.046,11.046,0,0,0,1.6-.278,7.7,7.7,0,0,0,1.88-.835,7.388,7.388,0,0,0,2.924-3.9,8.183,8.183,0,0,0,.348-2.576,5.711,5.711,0,0,0-2.019-4.595,8.368,8.368,0,0,0-5.5-1.671H124.1V77.619a2.364,2.364,0,0,0,1.392,2.228,3.169,3.169,0,0,0,1.392.348h.7v.487H117.7V80.2h.7a2.858,2.858,0,0,0,1.949-.766,2.344,2.344,0,0,0,.835-1.81V54.994a2.344,2.344,0,0,0-.835-1.81,2.8,2.8,0,0,0-1.949-.7h-.7V52h11.139a12.942,12.942,0,0,1,7.936,2.228,6.985,6.985,0,0,1,2.924,5.918,8.494,8.494,0,0,1-1.253,4.664,8.24,8.24,0,0,1-7.519,3.9,11.366,11.366,0,0,1-4.943-1.114Z" transform="translate(-105.586 -16.216)" fill="#4b4b4b"></path><path id="Tracciato_9" data-name="Tracciato 9" d="M179.446,79.822h.348v.487h-9.746v-.487h.348a1.66,1.66,0,0,0,1.392-.627,1.881,1.881,0,0,0,.487-1.184,2.793,2.793,0,0,0-.209-1.044l-2.645-6.335H157.377l-2.645,6.2a3.862,3.862,0,0,0-.209,1.184,1.881,1.881,0,0,0,.487,1.184,1.709,1.709,0,0,0,1.462.627h.348v.487H147.7v-.487h.348a3.376,3.376,0,0,0,2.019-.7,5.065,5.065,0,0,0,1.671-2.089Q162.181,54.69,162.6,53.645A9.208,9.208,0,0,0,163.434,51h.418l11.9,26.107C176.661,78.917,177.914,79.822,179.446,79.822ZM158,69.24h10.86L163.5,56.152Z" transform="translate(-114.701 -15.913)" fill="#4b4b4b"></path><path id="Tracciato_10" data-name="Tracciato 10" d="M204.32,53.058V77.285a2.388,2.388,0,0,0,1.462,2.228,3.169,3.169,0,0,0,1.392.348h.557v.487h-9.816v-.487h.557a2.858,2.858,0,0,0,1.949-.766,2.344,2.344,0,0,0,.835-1.81V53.058h-8.633a2.117,2.117,0,0,0-1.74.7,2.545,2.545,0,0,0-.627,1.74v.766H189.7V50.9a10.159,10.159,0,0,0,2.715.557,24.417,24.417,0,0,0,2.576.209h15.525a15.635,15.635,0,0,0,5.361-.766v5.361h-.557v-.766a2.309,2.309,0,0,0-.7-1.74,2.209,2.209,0,0,0-1.74-.7Z" transform="translate(-127.462 -15.882)" fill="#4b4b4b"></path><path id="Tracciato_11" data-name="Tracciato 11" d="M240.941,53.462h-2.506V77.55a2.5,2.5,0,0,0,1.323,2.228,3.169,3.169,0,0,0,1.392.348h.627l.07.487H232.1v-.487h.7a2.69,2.69,0,0,0,1.88-.766,2.278,2.278,0,0,0,.766-1.81V54.994a2.373,2.373,0,0,0-.766-1.74,2.744,2.744,0,0,0-1.88-.7h-.7V52h11.974a11.473,11.473,0,0,1,7.1,2.019,6.469,6.469,0,0,1,2.576,5.361,7.789,7.789,0,0,1-2.089,5.569,8.341,8.341,0,0,1-5.361,2.576c1.044.418,2.228,1.671,3.69,3.69,0,0,.487.7,1.671,2.089,1.114,1.392,2.019,2.506,2.715,3.272s1.253,1.392,1.671,1.81a5.693,5.693,0,0,0,4.038,1.671v.487h-1.462a10.482,10.482,0,0,1-5.918-1.462,12.021,12.021,0,0,1-2.924-2.715c-.209-.278-.975-1.392-2.437-3.342-1.392-2.019-2.158-3.063-2.3-3.2-1.74-2.158-3.342-3.2-4.8-3.2v-.487c3.69,0,5.987-.209,6.753-.557a5.729,5.729,0,0,0,2.158-1.74,7.883,7.883,0,0,0,1.183-4.177A5.576,5.576,0,0,0,248.6,55.2,7.55,7.55,0,0,0,244,53.462C243.1,53.532,242.055,53.462,240.941,53.462Z" transform="translate(-140.344 -16.216)" fill="#4b4b4b"></path><path id="Tracciato_12" data-name="Tracciato 12" d="M275.627,80.126a3.6,3.6,0,0,0,2.228-.766,2.284,2.284,0,0,0,.975-1.81V55.063a2.284,2.284,0,0,0-.975-1.81,3.651,3.651,0,0,0-2.3-.766H275V52h10.791v.487h-.627a3.541,3.541,0,0,0-2.228.7,2.454,2.454,0,0,0-1.044,1.74V77.55a2.284,2.284,0,0,0,.975,1.81,3.6,3.6,0,0,0,2.228.766h.627l.07.487H275v-.487Z" transform="translate(-153.377 -16.216)" fill="#4b4b4b"></path><path id="Tracciato_13" data-name="Tracciato 13" d="M335.278,79.791h.7v.487h-9.886v-.418h.7a1.743,1.743,0,0,0,1.253-.557,1.838,1.838,0,0,0,.487-1.323l-2.506-19.632L317.039,76.1a19.239,19.239,0,0,0-1.671,4.873h-.487L303.324,58.767l-2.089,19.215a1.288,1.288,0,0,0,.487,1.253,1.9,1.9,0,0,0,1.323.557h.7v.418H294.9v-.487h.7a3.144,3.144,0,0,0,2.646-1.253,2.691,2.691,0,0,0,.557-1.462l3.69-26.107h.487l12.6,24.227L327.76,50.9h.418l3.829,26.176a2.778,2.778,0,0,0,1.114,1.88A2.829,2.829,0,0,0,335.278,79.791Z" transform="translate(-159.423 -15.882)" fill="#4b4b4b"></path><path id="Tracciato_14" data-name="Tracciato 14" d="M365.506,52.98a18.288,18.288,0,0,1,16.151,0,14.783,14.783,0,0,1,5.848,5.291,15.164,15.164,0,0,1,0,15.594,14.783,14.783,0,0,1-5.848,5.291,16.254,16.254,0,0,1-7.519,1.88,18.7,18.7,0,0,1-6.823-1.114,16.586,16.586,0,0,1-5.152-3.063,14.039,14.039,0,0,1-3.411-4.8,16.246,16.246,0,0,1-1.253-6.614,13.293,13.293,0,0,1,2.158-7.24A15.144,15.144,0,0,1,365.506,52.98Zm-.9,22.835a11.778,11.778,0,0,0,8.911,3.759,12.037,12.037,0,0,0,8.981-3.759,13.407,13.407,0,0,0,3.62-9.747,13.407,13.407,0,0,0-3.62-9.747,12.037,12.037,0,0,0-8.981-3.759,11.778,11.778,0,0,0-8.911,3.759,13.7,13.7,0,0,0-3.62,9.747A13.819,13.819,0,0,0,364.6,75.814Z" transform="translate(-178.443 -15.943)" fill="#4b4b4b"></path><path id="Tracciato_15" data-name="Tracciato 15" d="M442.129,52.153a2.465,2.465,0,0,0-1.81.7,2.749,2.749,0,0,0-.835,1.671V74.849a41.072,41.072,0,0,0,.348,5.221l.07.835h-.418L414.7,57.374V77.285a2.373,2.373,0,0,0,.766,1.74,2.52,2.52,0,0,0,1.88.7h.835v.487H409.2v-.487h.835a2.745,2.745,0,0,0,1.88-.7,2.372,2.372,0,0,0,.766-1.74v-20.4a38.574,38.574,0,0,0-.348-5.221l-.07-.766.557.07L437.6,74.292V54.52a2.427,2.427,0,0,0-.835-1.671,2.465,2.465,0,0,0-1.81-.7h-.835v-.487H443.1v.487Z" transform="translate(-194.15 -15.882)" fill="#4b4b4b"></path><path id="Tracciato_16" data-name="Tracciato 16" d="M464.466,80.126a3.6,3.6,0,0,0,2.228-.766,2.284,2.284,0,0,0,.975-1.81V55.063a2.284,2.284,0,0,0-.975-1.81,3.651,3.651,0,0,0-2.3-.766h-.627V52H474.56v.487h-.627a3.541,3.541,0,0,0-2.228.7,2.454,2.454,0,0,0-1.044,1.74V77.55a2.284,2.284,0,0,0,.975,1.81,3.6,3.6,0,0,0,2.228.766h.627l.07.487H463.7v-.487Z" transform="translate(-210.708 -16.216)" fill="#4b4b4b"></path></g></g></g></g></g><path id="Tracciato_17" data-name="Tracciato 17" d="M31.719,79.085H.6V1.6H31.719ZM3.454,76.23H28.865V4.524H3.454Z" transform="translate(0 -0.304)" fill="#4b4b4b"></path><rect id="Rettangolo_1" data-name="Rettangolo 1" width="2.994" height="77.276" transform="translate(53.649 1.366)" fill="#4b4b4b"></rect><rect id="Rettangolo_2" data-name="Rettangolo 2" width="2.994" height="77.276" transform="translate(41.466 1.366)" fill="#4b4b4b"></rect><rect id="Rettangolo_3" data-name="Rettangolo 3" width="50.682" height="2.994" transform="matrix(0.274, -0.962, 0.962, 0.274, 7.929, 63.663)" fill="#ef0000"></rect><g id="Raggruppa_7" data-name="Raggruppa 7" transform="translate(84.629 71.401)"><path id="Tracciato_18" data-name="Tracciato 18" d="M121.718,105.772v2.645H121.3V102.5h1.532a2.366,2.366,0,0,1,1.532.418,1.35,1.35,0,0,1,.487,1.184,2.033,2.033,0,0,1-.139.627,1.249,1.249,0,0,1-.348.487,1.516,1.516,0,0,1-.557.348c-.209.07-.418.139-.7.209.07.07.139.07.209.139l2.019,2.576h-.487l-.07-.07-1.88-2.367-.07-.07-.07-.07h-1.044Zm0-.348h1.044a2.146,2.146,0,0,0,.7-.07,2.084,2.084,0,0,0,.557-.278.928.928,0,0,0,.348-.418,1.312,1.312,0,0,0,.139-.557.957.957,0,0,0-.418-.905,2.692,2.692,0,0,0-1.183-.278h-1.114v2.506h-.07Z" transform="translate(-121.3 -102.361)" fill="#4b4b4b"></path><path id="Tracciato_19" data-name="Tracciato 19" d="M144.881,102.47v.348h-3.063v2.367h2.576v.348h-2.576v2.437h3.133v.348H141.4V102.4l3.481.07Z" transform="translate(-127.407 -102.33)" fill="#4b4b4b"></path><path id="Tracciato_20" data-name="Tracciato 20" d="M165.291,108.418h-.418l-.07-.07-.7-1.74h-2.924l-.7,1.74a.068.068,0,0,1-.07.07H160l2.437-5.918h.418Zm-3.968-2.158h2.645l-1.184-2.994c-.07-.07-.07-.209-.139-.348,0,.07-.07.139-.07.209a.243.243,0,0,1-.07.139Z" transform="translate(-133.058 -102.361)" fill="#4b4b4b"></path><path id="Tracciato_21" data-name="Tracciato 21" d="M182.218,108.069H185v.348h-3.2V102.5h.418Z" transform="translate(-139.681 -102.361)" fill="#4b4b4b"></path><path id="Tracciato_22" data-name="Tracciato 22" d="M219.881,102.47v.348h-3.063v2.367h2.576v.348h-2.576v2.437h3.133v.348H216.4V102.4l3.481.07Z" transform="translate(-150.193 -102.33)" fill="#4b4b4b"></path><path id="Tracciato_23" data-name="Tracciato 23" d="M238.742,103.166c0,.07-.07.07-.139.07s-.07,0-.139-.07-.139-.139-.209-.139a.532.532,0,0,0-.348-.139c-.139,0-.348-.07-.557-.07a1.357,1.357,0,0,0-.557.07,1.457,1.457,0,0,0-.418.278,1.223,1.223,0,0,0-.278.348.883.883,0,0,0-.07.418,1.006,1.006,0,0,0,.139.487c.07.139.209.209.348.348s.278.139.487.209.348.139.557.209.348.139.557.209a1.122,1.122,0,0,1,.487.278,1.845,1.845,0,0,1,.348.418,1.39,1.39,0,0,1,.139.627,2.06,2.06,0,0,1-.139.7,1.516,1.516,0,0,1-.348.557,1.346,1.346,0,0,1-.627.348,2.992,2.992,0,0,1-.835.139,2.022,2.022,0,0,1-.975-.209,3.092,3.092,0,0,1-.766-.557l.139-.209c0-.07.07-.07.139-.07a.068.068,0,0,1,.07.07c.07,0,.07.07.139.139s.139.07.209.139a.362.362,0,0,0,.278.139c.07.07.209.07.348.139.139,0,.278.07.487.07a2.032,2.032,0,0,0,.627-.139,1.122,1.122,0,0,0,.487-.278,1.456,1.456,0,0,0,.278-.418,1.357,1.357,0,0,0,.07-.557,1.006,1.006,0,0,0-.139-.487.838.838,0,0,0-.348-.348,3.391,3.391,0,0,0-.487-.209c-.209-.07-.348-.139-.557-.209s-.348-.139-.557-.209a1.122,1.122,0,0,1-.487-.278,1.846,1.846,0,0,1-.348-.418,1.39,1.39,0,0,1-.139-.627,1.312,1.312,0,0,1,.139-.557,1.249,1.249,0,0,1,.348-.487,1.516,1.516,0,0,1,.557-.348,2.473,2.473,0,0,1,.7-.139,3.494,3.494,0,0,1,.835.139,2.317,2.317,0,0,1,.7.418Z" transform="translate(-155.966 -102.33)" fill="#4b4b4b"></path><path id="Tracciato_24" data-name="Tracciato 24" d="M258.895,102.5v.348h-2.089v5.569h-.418v-5.569H254.3V102.5Z" transform="translate(-161.708 -102.361)" fill="#4b4b4b"></path><path id="Tracciato_25" data-name="Tracciato 25" d="M278.391,108.418h-.418l-.07-.07-.7-1.74h-2.924l-.7,1.74a.068.068,0,0,1-.07.07H273.1l2.437-5.918h.418Zm-3.968-2.158h2.645l-1.184-2.994c-.07-.07-.07-.209-.139-.348,0,.07-.07.139-.07.209a.243.243,0,0,1-.07.139Z" transform="translate(-167.42 -102.361)" fill="#4b4b4b"></path><path id="Tracciato_26" data-name="Tracciato 26" d="M297.595,102.5v.348h-2.089v5.569h-.418v-5.569H293V102.5Z" transform="translate(-173.466 -102.361)" fill="#4b4b4b"></path><path id="Tracciato_27" data-name="Tracciato 27" d="M317.351,102.47v.348h-3.133v2.367h2.576v.348h-2.576v2.437h3.133v.348H313.8V102.4l3.551.07Z" transform="translate(-179.785 -102.33)" fill="#4b4b4b"></path><path id="Tracciato_28" data-name="Tracciato 28" d="M353.391,108.418h-.418l-.07-.07-.7-1.74h-2.924l-.7,1.74a.068.068,0,0,1-.07.07H348.1l2.437-5.918h.418Zm-3.968-2.158h2.646l-1.184-2.994c-.07-.07-.07-.209-.139-.348,0,.07-.07.139-.07.209a.243.243,0,0,1-.07.139Z" transform="translate(-190.207 -102.361)" fill="#4b4b4b"></path><path id="Tracciato_29" data-name="Tracciato 29" d="M374.943,105.394a3.641,3.641,0,0,1-.209,1.253,2.86,2.86,0,0,1-.557.905,1.794,1.794,0,0,1-.905.557,5.278,5.278,0,0,1-1.114.209H370V102.4h2.158a2.886,2.886,0,0,1,1.114.209,3.947,3.947,0,0,1,.905.557,2.457,2.457,0,0,1,.557.905A4.731,4.731,0,0,1,374.943,105.394Zm-.418,0a5.413,5.413,0,0,0-.139-1.114,2.407,2.407,0,0,0-.487-.835,1.8,1.8,0,0,0-.766-.487,2.224,2.224,0,0,0-.975-.209h-1.74v5.221h1.74a2.224,2.224,0,0,0,.975-.209,2.875,2.875,0,0,0,.766-.487,2.407,2.407,0,0,0,.487-.835A3.774,3.774,0,0,0,374.525,105.394Z" transform="translate(-196.86 -102.33)" fill="#4b4b4b"></path><path id="Tracciato_30" data-name="Tracciato 30" d="M390.6,102.5h.418l.07.07,2.019,4.873c0,.07.07.139.07.209s.07.139.07.209c0-.07.07-.139.07-.209s.07-.139.07-.209l2.019-4.873a.068.068,0,0,1,.07-.07h.418l-2.437,5.918h-.348Z" transform="translate(-203.119 -102.361)" fill="#4b4b4b"></path><path id="Tracciato_31" data-name="Tracciato 31" d="M412.818,108.418H412.4V102.5h.418Z" transform="translate(-209.742 -102.361)" fill="#4b4b4b"></path><path id="Tracciato_32" data-name="Tracciato 32" d="M430.942,103.166c0,.07-.07.07-.139.07s-.07,0-.139-.07-.139-.139-.209-.139a.531.531,0,0,0-.348-.139c-.139,0-.348-.07-.557-.07a1.357,1.357,0,0,0-.557.07,1.454,1.454,0,0,0-.418.278,1.222,1.222,0,0,0-.279.348.883.883,0,0,0-.07.418,1.006,1.006,0,0,0,.139.487c.07.139.209.209.348.348s.279.139.487.209.348.139.557.209.348.139.557.209a1.122,1.122,0,0,1,.487.278,1.845,1.845,0,0,1,.348.418,1.39,1.39,0,0,1,.139.627,2.059,2.059,0,0,1-.139.7,1.515,1.515,0,0,1-.348.557,1.346,1.346,0,0,1-.627.348,2.993,2.993,0,0,1-.835.139,2.021,2.021,0,0,1-.975-.209,3.091,3.091,0,0,1-.766-.557l.139-.209c0-.07.07-.07.139-.07a.068.068,0,0,1,.07.07c.07,0,.07.07.139.139s.139.07.209.139a.362.362,0,0,0,.279.139c.07.07.209.07.348.139.139,0,.279.07.487.07a2.033,2.033,0,0,0,.627-.139,1.122,1.122,0,0,0,.487-.278,1.454,1.454,0,0,0,.278-.418,1.357,1.357,0,0,0,.07-.557,1.006,1.006,0,0,0-.139-.487.839.839,0,0,0-.348-.348,3.392,3.392,0,0,0-.487-.209c-.209-.07-.348-.139-.557-.209s-.348-.139-.557-.209a1.122,1.122,0,0,1-.487-.278,1.847,1.847,0,0,1-.348-.418,1.391,1.391,0,0,1-.139-.627,1.312,1.312,0,0,1,.139-.557,1.249,1.249,0,0,1,.348-.487,1.517,1.517,0,0,1,.557-.348,2.473,2.473,0,0,1,.7-.139,3.494,3.494,0,0,1,.835.139,3.688,3.688,0,0,1,.7.418Z" transform="translate(-214.36 -102.33)" fill="#4b4b4b"></path><path id="Tracciato_33" data-name="Tracciato 33" d="M452.569,105.363a3.373,3.373,0,0,1-.209,1.253,4.438,4.438,0,0,1-.557.975,2.649,2.649,0,0,1-.9.627,3.075,3.075,0,0,1-2.228,0,2.649,2.649,0,0,1-.905-.627,2.244,2.244,0,0,1-.557-.975,3.373,3.373,0,0,1-.209-1.253,3.641,3.641,0,0,1,.209-1.253,4.437,4.437,0,0,1,.557-.975,2.649,2.649,0,0,1,.905-.627,3.075,3.075,0,0,1,2.228,0,2.65,2.65,0,0,1,.9.627,2.244,2.244,0,0,1,.557.975A3.943,3.943,0,0,1,452.569,105.363Zm-.418,0a5.413,5.413,0,0,0-.139-1.114,2.408,2.408,0,0,0-.487-.835,3.092,3.092,0,0,0-.766-.557,2.379,2.379,0,0,0-1.949,0,1.975,1.975,0,0,0-.766.557,2.408,2.408,0,0,0-.487.835,2.885,2.885,0,0,0-.139,1.114,5.409,5.409,0,0,0,.139,1.114,1.67,1.67,0,0,0,.487.835,3.092,3.092,0,0,0,.766.557,2.379,2.379,0,0,0,1.949,0,1.975,1.975,0,0,0,.766-.557,2.408,2.408,0,0,0,.487-.835A2.886,2.886,0,0,0,452.152,105.363Z" transform="translate(-220.254 -102.3)" fill="#4b4b4b"></path><path id="Tracciato_34" data-name="Tracciato 34" d="M470.218,105.772v2.645H469.8V102.5h1.532a2.366,2.366,0,0,1,1.532.418,1.35,1.35,0,0,1,.487,1.184,2.032,2.032,0,0,1-.139.627,1.248,1.248,0,0,1-.348.487,1.516,1.516,0,0,1-.557.348c-.209.07-.418.139-.7.209.07.07.139.07.209.139l2.019,2.576h-.487l-.07-.07-1.88-2.367-.07-.07-.07-.07h-1.044v-.139Zm0-.348h1.044a2.145,2.145,0,0,0,.7-.07,1.4,1.4,0,0,0,.557-.278,1.846,1.846,0,0,0,.348-.418A1.311,1.311,0,0,0,473,104.1a.957.957,0,0,0-.418-.905,1.992,1.992,0,0,0-1.183-.278h-1.114l-.07,2.506Z" transform="translate(-227.181 -102.361)" fill="#4b4b4b"></path></g></g></svg>